<svg width="18" height="18" viewBox="0 0 18 18" fill="none" xmlns="http://www.w3.org/2000/svg">
<path fill-rule="evenodd" clip-rule="evenodd" d="M1.01049 1.01041C1.27303 0.747952 1.62906 0.60051 2.00029 0.60051C2.37152 0.60051 2.72755 0.747952 2.99009 1.01041L9.00029 7.02061L15.0105 1.01041C15.1396 0.876697 15.2941 0.770042 15.4649 0.696669C15.6357 0.623297 15.8194 0.584676 16.0053 0.583061C16.1912 0.581445 16.3756 0.616867 16.5476 0.687261C16.7197 0.757654 16.876 0.861608 17.0074 0.993058C17.1389 1.12451 17.2428 1.28082 17.3132 1.45288C17.3836 1.62493 17.4191 1.80928 17.4174 1.99517C17.4158 2.18106 17.3772 2.36477 17.3038 2.53558C17.2305 2.70638 17.1238 2.86087 16.9901 2.99001L10.9799 9.00021L16.9901 15.0104C17.2451 15.2745 17.3862 15.6281 17.383 15.9952C17.3798 16.3622 17.2326 16.7134 16.973 16.973C16.7135 17.2325 16.3623 17.3798 15.9952 17.383C15.6282 17.3861 15.2745 17.245 15.0105 16.99L9.00029 10.9798L2.99009 16.99C2.72604 17.245 2.3724 17.3861 2.00532 17.383C1.63825 17.3798 1.28711 17.2325 1.02754 16.973C0.76797 16.7134 0.620733 16.3622 0.617543 15.9952C0.614353 15.6281 0.755466 15.2745 1.01049 15.0104L7.02069 9.00021L1.01049 2.99001C0.748028 2.72747 0.600586 2.37144 0.600586 2.00021C0.600586 1.62898 0.748028 1.27295 1.01049 1.01041Z" fill="#fff"/>
</svg>
