<svg width="60" height="20" viewBox="0 0 60 20" fill="none" xmlns="http://www.w3.org/2000/svg">
<path d="M56.747 2.58606C56.372 2.21112 55.8633 2.00049 55.333 2.00049C54.8027 2.00049 54.2941 2.21112 53.919 2.58606L46.333 10.1721V13.0001H49.161L56.747 5.41406C57.1219 5.03901 57.3326 4.53039 57.3326 4.00006C57.3326 3.46973 57.1219 2.96112 56.747 2.58606Z" fill="#6B7280"/>
<path fill-rule="evenodd" clip-rule="evenodd" d="M41.333 6C41.333 5.46957 41.5437 4.96086 41.9188 4.58579C42.2939 4.21071 42.8026 4 43.333 4H47.333C47.5982 4 47.8526 4.10536 48.0401 4.29289C48.2277 4.48043 48.333 4.73478 48.333 5C48.333 5.26522 48.2277 5.51957 48.0401 5.70711C47.8526 5.89464 47.5982 6 47.333 6H43.333V16H53.333V12C53.333 11.7348 53.4384 11.4804 53.6259 11.2929C53.8134 11.1054 54.0678 11 54.333 11C54.5982 11 54.8526 11.1054 55.0401 11.2929C55.2277 11.4804 55.333 11.7348 55.333 12V16C55.333 16.5304 55.1223 17.0391 54.7472 17.4142C54.3721 17.7893 53.8634 18 53.333 18H43.333C42.8026 18 42.2939 17.7893 41.9188 17.4142C41.5437 17.0391 41.333 16.5304 41.333 16V6Z" fill="#6B7280"/>
</svg>
