<svg width="24" height="21" viewBox="0 0 24 21" fill="none" xmlns="http://www.w3.org/2000/svg">
<path fill-rule="evenodd" clip-rule="evenodd" d="M0.799805 2.50039C0.799805 2.07604 0.968376 1.66908 1.26843 1.36902C1.56849 1.06896 1.97546 0.900391 2.3998 0.900391H21.5998C22.0242 0.900391 22.4311 1.06896 22.7312 1.36902C23.0312 1.66908 23.1998 2.07604 23.1998 2.50039C23.1998 2.92474 23.0312 3.3317 22.7312 3.63176C22.4311 3.93182 22.0242 4.10039 21.5998 4.10039H2.3998C1.97546 4.10039 1.56849 3.93182 1.26843 3.63176C0.968376 3.3317 0.799805 2.92474 0.799805 2.50039ZM0.799805 10.5004C0.799805 10.076 0.968376 9.66908 1.26843 9.36902C1.56849 9.06896 1.97546 8.90039 2.3998 8.90039H21.5998C22.0242 8.90039 22.4311 9.06896 22.7312 9.36902C23.0312 9.66908 23.1998 10.076 23.1998 10.5004C23.1998 10.9247 23.0312 11.3317 22.7312 11.6318C22.4311 11.9318 22.0242 12.1004 21.5998 12.1004H2.3998C1.97546 12.1004 1.56849 11.9318 1.26843 11.6318C0.968376 11.3317 0.799805 10.9247 0.799805 10.5004ZM0.799805 18.5004C0.799805 18.076 0.968376 17.6691 1.26843 17.369C1.56849 17.069 1.97546 16.9004 2.3998 16.9004H11.9998C12.4242 16.9004 12.8311 17.069 13.1312 17.369C13.4312 17.6691 13.5998 18.076 13.5998 18.5004C13.5998 18.9247 13.4312 19.3317 13.1312 19.6318C12.8311 19.9318 12.4242 20.1004 11.9998 20.1004H2.3998C1.97546 20.1004 1.56849 19.9318 1.26843 19.6318C0.968376 19.3317 0.799805 18.9247 0.799805 18.5004Z" fill="#fff"/>
</svg>
