<svg width="18" height="21" viewBox="0 0 18 21" fill="none" xmlns="http://www.w3.org/2000/svg">
<path d="M9.00033 0.900391C7.09077 0.900391 5.25942 1.65896 3.90916 3.00922C2.5589 4.35948 1.80033 6.19083 1.80033 8.10039V12.4036L0.95193 13.252C0.784159 13.4198 0.669911 13.6336 0.62363 13.8664C0.577349 14.0991 0.601113 14.3403 0.691917 14.5596C0.782721 14.7788 0.936488 14.9662 1.13378 15.0981C1.33107 15.2299 1.56303 15.3003 1.80033 15.3004H16.2003C16.4376 15.3003 16.6696 15.2299 16.8669 15.0981C17.0642 14.9662 17.2179 14.7788 17.3087 14.5596C17.3995 14.3403 17.4233 14.0991 17.377 13.8664C17.3307 13.6336 17.2165 13.4198 17.0487 13.252L16.2003 12.4036V8.10039C16.2003 6.19083 15.4418 4.35948 14.0915 3.00922C12.7412 1.65896 10.9099 0.900391 9.00033 0.900391ZM9.00033 20.1004C8.04555 20.1004 7.12988 19.7211 6.45475 19.046C5.77961 18.3708 5.40033 17.4552 5.40033 16.5004H12.6003C12.6003 17.4552 12.221 18.3708 11.5459 19.046C10.8708 19.7211 9.95511 20.1004 9.00033 20.1004Z" fill="#111928"/>
</svg>
